<svg width="12" height="12" viewBox="0 0 12 12" fill="none" xmlns="http://www.w3.org/2000/svg">
<g id="Capa_1" clip-path="url(#clip0_4769_6701)">
<g id="Group">
<path id="Vector" d="M7.64062 1.75781V0.820312C7.64062 0.561422 7.43077 0.351562 7.17188 0.351562H4.82812C4.56923 0.351562 4.35938 0.561422 4.35938 0.820312V1.75781" stroke="black" stroke-miterlimit="10" stroke-linecap="round" stroke-linejoin="round"/>
<path id="Vector_2" d="M10.6875 3.44531V2.69531C10.6875 2.17755 10.2678 1.75781 9.75 1.75781H2.25C1.73224 1.75781 1.3125 2.17755 1.3125 2.69531V3.44531H10.6875Z" stroke="black" stroke-miterlimit="10" stroke-linecap="round" stroke-linejoin="round"/>
<path id="Vector_3" d="M2.01562 3.44531L2.85816 10.8174C2.91227 11.2909 3.31301 11.6484 3.78959 11.6484H8.21041C8.68699 11.6484 9.08773 11.2909 9.14184 10.8174L9.98438 3.44531" stroke="black" stroke-miterlimit="10" stroke-linecap="round" stroke-linejoin="round"/>
<path id="Vector_4" d="M7.91353 4.85156L7.60547 10.2422" stroke="black" stroke-miterlimit="10" stroke-linecap="round" stroke-linejoin="round"/>
<path id="Vector_5" d="M6 4.85156V10.2422" stroke="black" stroke-miterlimit="10" stroke-linecap="round" stroke-linejoin="round"/>
<path id="Vector_6" d="M4.08984 4.85156L4.39791 10.2422" stroke="black" stroke-miterlimit="10" stroke-linecap="round" stroke-linejoin="round"/>
</g>
</g>
<defs>
<clipPath id="clip0_4769_6701">
<rect width="12" height="12" fill="white"/>
</clipPath>
</defs>
</svg>
